<svg xmlns="http://www.w3.org/2000/svg" xml:space="preserve" style="enable-background:new 0 0 679 157" viewBox="0 0 679 157"><path d="M304.47 133.76c1.59 0 3.23 1.2 3.64 2.68l4.5 16c.41 1.47-.55 2.68-2.14 2.68h-39.18v-.01c-.1 0-.21.01-.31.01-5.9 0-10.68-4.78-10.68-10.68 0-5.9 4.78-10.68 10.68-10.68h33.49zm-71.32-74.88c-4.1-4.1-9.78-6.64-16.04-6.64-6.27 0-11.94 2.54-16.04 6.64s-6.64 9.78-6.64 16.04c0 6.27 2.54 11.94 6.64 16.04s9.78 6.64 16.04 6.64c6.27 0 11.94-2.54 16.04-6.64s6.64-9.78 6.64-16.04c0-6.27-2.54-11.94-6.64-16.04zM10.71 92.98c-15.98-15.9-14.07-42.9 5.73-56.15l.37-.24.37-.23.37-.23.38-.23.38-.22.38-.22.39-.21.39-.21.39-.2.39-.2.4-.19.4-.19.4-.19.4-.18.41-.18.41-.17.41-.17.41-.16.42-.16.42-.15.42-.15.42-.14.43-.14.43-.13.43-.13.43-.12.43-.11.44-.11c.15-.04.29-.07.44-.11.15-.03.29-.07.44-.1l.44-.09.45-.09c.15-.03.3-.06.45-.08l.45-.08c.15-.03.3-.05.45-.07l.45-.07.45-.06.46-.06c.15-.02.3-.03.46-.05l.46-.04.46-.04.46-.03.46-.03c.16-.01.31-.02.47-.02l.47-.01.47-.01h56.87c1.59 0 3.23 1.2 3.64 2.68l4.5 16.01c.41 1.47-.55 2.68-2.14 2.68H36.04l-.19.01-.19.01-.19.01-.19.01-.19.02-.19.02-.19.02-.19.02-.19.02-.19.03-.19.03-.18.03-.18.03-.18.04-.18.04-.18.04-.18.04-.18.05-.18.05-.18.05-.18.05-.18.05-.18.06-.17.06-.17.06-.17.06-.17.06-.17.07-.17.07-.17.07-.17.07-.17.08-.17.08-.16.08-.16.08-.16.08-.16.08-.16.09-.16.09-.16.09-.16.09-.16.09-.15.1-.15.1-.15.1-.15.1c-8.75 6.03-8.91 18.49-.3 24.73l.15.1.15.1.15.1.15.1.15.1.15.1.16.09.16.09.16.09.16.09.16.09.16.08.16.08.16.08.16.08.17.08.17.07.17.07.17.07.17.07.17.07.17.07.17.06.17.06.17.06.18.06.18.06.18.05.18.05.18.05.18.05.18.04.18.04.18.04.18.04.18.03.18.03.19.03.19.03.19.03.19.02.19.02.19.02.19.02.19.01.19.01.19.01.19.01H92.82c1.59 0 3.23 1.2 3.64 2.68l4.5 16c.41 1.47-.55 2.68-2.14 2.68H36.03l-.19.01-.19.01-.19.01-.19.01-.19.01-.19.02-.19.02-.19.02-.19.03-.19.03-.19.03-.18.03-.18.03-.18.04-.19.03-.18.04-.18.04-.18.05-.18.05-.18.05-.18.05-.18.05-.18.06-.17.06-.17.06-.17.06-.17.06-.17.07-.17.07-.17.07-.17.07-.17.07-.17.08-.16.08-.16.08-.16.08-.16.08-.16.09-.16.09-.16.09-.16.09-.16.09-.15.1-.15.1-.15.1-.15.1c-8.75 6.03-8.91 18.49-.3 24.73l.15.1.15.1.15.1.15.1.15.1.15.1.16.09.16.09.16.09.16.09.16.09.16.08.16.08.16.08.16.08.17.08.17.07.17.07.17.07.17.07.17.07.17.07.17.06.17.06.17.06.18.06.18.05.18.05.18.05.18.05.18.05.18.04.18.04.18.04.18.04.18.03.18.03.19.03.19.03.19.03.19.02.19.02.19.02.19.01.19.01.19.01.19.01.19.01H92.8c1.59 0 3.23 1.2 3.64 2.68l4.5 16c.41 1.47-.55 2.68-2.14 2.68H35.93l-.47-.01H35l-.47-.02-.46-.03-.46-.03-.46-.04-.46-.04c-.15-.02-.3-.03-.46-.05l-.46-.06-.45-.06-.45-.07-.45-.07-.45-.08-.45-.08-.45-.09-.44-.09c-.15-.03-.29-.06-.44-.1-.15-.03-.29-.07-.44-.1l-.44-.11-.43-.11-.43-.12-.43-.13c-.14-.04-.29-.09-.43-.13l-.43-.14-.42-.14-.42-.15-.42-.15-.42-.16-.41-.16-.41-.17-.41-.17-.41-.17-.4-.18-.4-.19-.4-.19-.4-.19-.39-.2-.39-.2-.39-.21-.39-.21-.38-.22-.38-.22-.38-.23-.37-.23-.37-.23-.37-.24c-19.8-13.25-21.71-40.25-5.72-56.15zM50.4 1.85c5.9 0 10.68 4.78 10.68 10.68 0 5.9-4.78 10.68-10.68 10.68-5.9 0-10.68-4.78-10.68-10.68.01-5.9 4.79-10.68 10.68-10.68zm416.7 80.71v.47l-.01.47-.02.47-.02.47-.03.46-.03.46-.04.46-.04.46c-.02.15-.03.31-.05.46l-.06.46-.06.45-.07.45-.07.45-.08.45-.08.45-.09.44-.09.44c-.03.15-.06.29-.1.44-.03.15-.07.29-.1.44l-.11.44-.12.43-.12.43-.13.43c-.04.14-.09.29-.13.43l-.14.43-.14.42-.15.42-.15.42-.16.42-.16.41-.17.41-.17.41-.18.41-.18.4-.18.4-.19.4-.19.4-.2.39-.2.39-.21.39c-.07.13-.14.26-.21.38l-.22.38-.22.38-.23.38-.23.37-.24.37-.24.37c-13.25 19.81-40.25 21.72-56.15 5.73-14.2 14.28-37.26 14.28-51.46 0-14.21 14.28-37.26 14.28-51.47 0-14.95 15.02-39.7 14.24-53.62-2.36l-.16.16c-7.97 7.97-18.98 12.9-31.14 12.9s-23.17-4.93-31.14-12.9c-7.97-7.97-12.9-18.98-12.9-31.14 0-8.3 2.3-16.06 6.28-22.68h-6.64c-4.47.11-8.9 2.22-11.9 6.36l-.11.15-.1.15-.1.15-.1.15-.1.15-.1.16-.09.16-.09.16-.09.16-.09.16-.09.16-.09.16-.08.16-.08.16-.08.16-.08.17-.07.17-.07.17-.07.17-.07.17-.07.17-.06.17-.06.17-.06.17-.06.17-.06.18-.05.18-.05.18-.05.18-.05.18-.05.18-.04.18-.04.18-.04.18-.04.18-.03.18-.03.18-.03.19-.03.19-.02.19-.02.19-.02.19-.02.19-.02.19-.01.19-.01.19-.01.19-.01.19v52.21c-.13 11.41-5.6 22.77-16.44 30.02l-.37.24-.37.23-.37.23-.38.23-.38.22-.38.22c-.13.07-.26.14-.38.21l-.39.21-.39.2-.39.2-.4.19-.4.19-.4.19-.4.18-.41.17-.41.17-.41.17-.41.16-.42.16-.42.15-.42.15-.42.14-.43.14c-.14.04-.28.09-.43.13l-.43.13-.43.12-.43.11-.44.11c-.15.04-.29.07-.44.1-.15.03-.29.07-.44.1l-.44.09-.44.09-.45.08-.45.08-.45.07-.45.07-.45.06-.46.06c-.15.02-.3.03-.46.05l-.46.04-.46.04-.46.03-.46.03-.47.02-.47.01-.47.01h-9.55c-1.59 0-3.23-1.2-3.64-2.68l-4.5-16c-.41-1.47.55-2.68 2.14-2.68H121.99l.19-.01.19-.01.19-.01.19-.01.19-.01.19-.02.19-.02.19-.02.19-.03.19-.03.19-.03.18-.03.18-.03.18-.04.18-.04.18-.04.18-.04.18-.05.18-.05.18-.05.18-.05.18-.05.18-.06.17-.06.17-.06.17-.06.17-.07.17-.07.17-.07.17-.07.17-.07.17-.07.17-.08.17-.08.16-.08.16-.08.16-.08.16-.09.16-.09.16-.09.16-.09.16-.09.16-.1.15-.1.15-.1.15-.1.15-.1.15-.1c4.14-3 6.25-7.43 6.36-11.9.01-17.26 0-34.52 0-51.78v-.47l.01-.47.01-.47.02-.47.03-.46.03-.46.04-.46.04-.46c.02-.15.03-.3.05-.46l.06-.46.06-.45.07-.45.07-.45.08-.45.08-.45.09-.44.09-.44c.03-.15.07-.29.1-.44.03-.15.07-.29.1-.44l.11-.44.11-.43.12-.43.13-.43c.04-.14.09-.29.13-.43l.14-.43.14-.42c.05-.14.1-.28.14-.42l.15-.42.16-.42.16-.41.17-.41.17-.41.17-.41.18-.4.18-.4.19-.4.19-.4.2-.39.2-.39.21-.39.21-.39.22-.38.22-.38.23-.38.23-.37.23-.37.24-.37c7.25-10.83 18.61-16.31 30.02-16.43h43.68c.26 0 .52-.01.78-.01 12.16 0 23.17 4.93 31.14 12.9 12.08 12.07 12.71 23.18 12.99 38.78v.38l.01.19.01.19.01.19.01.19.02.19.02.19.02.19.02.19.03.19.03.19.03.18.03.19.03.18.04.18.04.18.04.18.04.18.05.18.05.18.05.18.05.18.06.18.06.17.06.17.06.17.06.17.07.17.07.17.07.17.07.17.07.17.07.17.08.17.08.16.08.16.08.16.08.16.09.16.09.16.09.16.09.16.09.16.1.15.1.15.1.15.1.15c6.03 8.75 18.49 8.91 24.73.3l.1-.15.1-.15.1-.15.1-.15.1-.15.1-.15.09-.16.09-.16.09-.16.09-.16.09-.16.08-.16.08-.16.08-.16.08-.16.08-.17.07-.17.07-.17.07-.17.07-.17.07-.17.06-.17.06-.17.06-.17.06-.17.06-.17.05-.18.05-.18.05-.18.05-.18.05-.18.04-.18.04-.18.04-.18.04-.18.03-.18.03-.19.03-.18.03-.19.02-.19.02-.19.02-.19.02-.19.02-.19.01-.19.01-.19.01-.19.01-.19V39.06c0-1.59 1.2-3.23 2.68-3.64l16.01-4.5c1.47-.41 2.68.55 2.68 2.14V82.94l.01.19.01.19.01.19.01.19.02.19.02.19.02.19.02.19.03.19.03.19.03.18.03.19.03.18.04.18.04.18.04.18.04.18.05.18.05.18.05.18.05.18.05.18.06.17.06.17.06.17.06.17.07.17.07.17.07.17.07.17.07.17.08.17.08.17.08.16.08.16.08.16.09.16.09.16.09.16.09.16.09.16.09.16.1.15.1.15.1.15.1.15c6.03 8.75 18.49 8.91 24.73.3l.1-.15.1-.15.1-.15.1-.15.1-.15.1-.15.09-.16.09-.16.09-.16.09-.16.09-.16.08-.16.08-.16.08-.16.08-.16.08-.17.08-.17.07-.17.07-.17.07-.17.07-.17.07-.17.06-.17.06-.17.06-.17.06-.17.05-.18.05-.18.05-.18.05-.18.05-.18.04-.18.04-.18.04-.18.04-.18.03-.18.03-.19.03-.18.03-.19.02-.19.02-.19.02-.19.02-.19.02-.19.01-.19.01-.19.01-.19.01-.19V38.93l.01-.08.01-.07.01-.07.01-.07.01-.07.01-.07.01-.08.02-.07.02-.07.02-.07.02-.07.02-.07.02-.07.02-.07.03-.07.03-.07.03-.07.03-.07.03-.07.03-.07.03-.07.04-.07.04-.07.04-.07.04-.07.04-.07.04-.07.04-.06.04-.06.04-.06.05-.06.05-.06.05-.06.05-.06.05-.06.05-.06.05-.06.05-.05.05-.05.05-.05.06-.05.06-.05.06-.05.06-.05.06-.05.06-.05.06-.04.06-.04.06-.04.06-.04.06-.04.06-.04.06-.04.06-.03.07-.03.07-.03.07-.03.07-.03.07-.02.07-.02.07-.02.07-.02 16.01-4.5.07-.02.07-.02.07-.01.07-.01.07-.01.07-.01.07-.01h.37l.06.01.06.01.06.01.06.01.06.01.06.02.06.02.06.02.06.02.05.02.05.02.05.02.05.03.05.03.05.03.05.03.05.03.05.03.05.04.04.04.04.04.04.04.04.04.04.04.04.04.04.05.04.05.04.05.03.05.03.05.03.05.03.05.03.06.03.06.03.06.02.06.02.06.02.06.02.06.02.06.02.06.02.06.01.07.01.07.01.07.01.07.01.07.01.07V82.98l.01.19.01.19.01.19.01.19.02.19.02.19.02.19.02.19.02.19.03.19.03.18.03.19.03.18.04.18.04.18.04.18.04.18.05.18.05.18.05.18.05.18.05.18.06.17.06.17.06.17.06.17.06.17.07.17.07.17.07.17.07.17.07.17.08.17.08.16.08.16.08.16.09.16.09.16.09.16.09.16.09.16.09.16.1.15.1.15.1.15.1.15c6.03 8.75 18.49 8.91 24.73.3l.1-.15.1-.15.1-.15.1-.15.1-.15.1-.15.09-.16.09-.16.09-.16.09-.16.09-.16.08-.16.08-.16.08-.16.08-.16.08-.17.07-.17.07-.17.07-.17.07-.17.07-.17.07-.17.06-.17.06-.17.06-.17.06-.17.05-.18.05-.18.05-.18.05-.18.05-.18.04-.18.04-.18.04-.18.04-.18.03-.18.03-.19.03-.18.03-.19.03-.19.02-.19.02-.19.02-.19.02-.19.01-.19.01-.19.01-.19.01-.19V38.89l.01-.07.01-.07.01-.07.01-.07.01-.07.01-.08.01-.07.02-.07.02-.07.02-.07.02-.07.02-.07.02-.07.03-.07.03-.07.03-.07.03-.07.03-.07.03-.07.03-.07.04-.07.04-.07.04-.07.04-.07.04-.07.04-.07.04-.06.04-.06.04-.06.05-.06.05-.06.05-.06.05-.06.05-.06.05-.06.05-.06.05-.05.05-.05.05-.05.05-.05.06-.05.06-.05.06-.05.06-.05.06-.05.06-.04.06-.04.06-.04.06-.04.06-.04.06-.04.06-.04.06-.03.07-.03.07-.03.07-.03.07-.03.07-.02.07-.02.07-.02.07-.02 16.01-4.5.07-.02.07-.02.07-.01.07-.01.07-.01.07-.01.07-.01h.37l.06.01.06.01.06.01.06.01.06.01.06.02.06.02.06.02.06.02.05.02.05.02.05.02.05.03.05.03.05.03.05.03.05.03.05.03.05.04.05.04.04.04.04.04.04.04.04.04.04.04.04.05.04.05.03.05.03.05.03.05.03.05.03.05.03.06.03.06.03.06.02.06.02.06.02.06.02.06.02.06.02.06.01.06.01.07.01.07.01.07.01.07.01.07v50.16l.01.19.01.19.01.19.01.19.02.19.02.19.02.19.02.19.02.19.03.19.03.18.03.19.03.18.04.18.04.18.04.18.04.18.05.18.05.18.05.18.05.18.05.18.06.17.06.17.06.17.06.17.06.17.07.17.07.17.07.17.07.17.07.17.08.17.08.16.08.16.08.16.08.16.09.16.09.16.09.16.09.16.09.16.1.15.1.15.1.15.1.15c6.03 8.75 18.49 8.91 24.73.3l.1-.15.1-.15.1-.15.1-.15.1-.15.1-.15.09-.16.09-.16.09-.16.09-.16.09-.16.08-.16.08-.16.08-.16.08-.16.08-.17.07-.17.07-.17.07-.17.07-.17.07-.17.07-.17.06-.17.06-.17.06-.17.06-.17.06-.18.05-.18.05-.18.05-.18.05-.18.04-.18.04-.18.04-.18.04-.18.03-.18.03-.19.03-.18.03-.19.03-.19.02-.19.02-.19.02-.19.02-.19.01-.19.01-.19.01-.19.01-.19V39.15c0-1.59 1.2-3.23 2.68-3.64l16-4.5c1.47-.41 2.68.55 2.68 2.14.04 16.41.04 32.91.04 49.41z" style="fill:#0b29ea"/><path d="M561.51 122.16c8.04-8.04 8.04-21.08 0-29.12-8.04-8.04-21.08-8.04-29.12 0-8.04 8.04-8.04 21.08 0 29.12 8.04 8.04 21.08 8.04 29.12 0" style="fill-rule:evenodd;clip-rule:evenodd;fill:#0b29ea"/><path d="M590.62 93.04c8.04-8.04 8.04-21.07 0-29.11s-21.08-8.04-29.11 0c-8.04 8.04-8.04 21.07 0 29.11s21.07 8.04 29.11 0M619.74 63.93c8.04-8.04 8.04-21.08 0-29.11-8.04-8.04-21.07-8.04-29.11 0s-8.04 21.07 0 29.11c8.03 8.04 21.07 8.04 29.11 0M590.62 151.27c8.04-8.04 8.04-21.07 0-29.11s-21.08-8.04-29.11 0c-8.04 8.04-8.04 21.07 0 29.11s21.07 8.04 29.11 0M619.74 122.16c8.04-8.04 8.04-21.08 0-29.12-8.04-8.04-21.07-8.04-29.11 0s-8.04 21.08 0 29.12c8.03 8.04 21.07 8.04 29.11 0" style="fill-rule:evenodd;clip-rule:evenodd;fill:#0b29ea"/><path d="M672.97 93.04c8.04-8.04 8.04-21.07 0-29.11s-21.07-8.04-29.11 0-8.04 21.07 0 29.11c8.03 8.04 21.07 8.04 29.11 0" style="fill-rule:evenodd;clip-rule:evenodd;fill:#fb0"/><path d="M532.39 93.04c8.04-8.04 8.04-21.07 0-29.11s-21.08-8.04-29.11 0c-8.04 8.04-8.04 21.07 0 29.11s21.07 8.04 29.11 0M561.51 63.93c8.04-8.04 8.04-21.08 0-29.11-8.04-8.04-21.08-8.04-29.12 0-8.04 8.04-8.04 21.07 0 29.11s21.08 8.04 29.12 0M590.62 34.81c8.04-8.04 8.04-21.08 0-29.12-8.04-8.04-21.08-8.04-29.11 0-8.04 8.04-8.04 21.07 0 29.12 8.04 8.04 21.07 8.04 29.11 0" style="fill-rule:evenodd;clip-rule:evenodd;fill:#0b29ea"/></svg>